<?xml version="1.0" encoding="UTF-8" standalone="no" ?>
<!DOCTYPE svg PUBLIC "-//W3C//DTD SVG 1.1//EN" "http://www.w3.org/Graphics/SVG/1.1/DTD/svg11.dtd">
<svg xmlns="http://www.w3.org/2000/svg" xmlns:xlink="http://www.w3.org/1999/xlink" version="1.1" width="640" height="640" viewBox="0 0 500 500" xml:space="preserve">
<desc>Created with Fabric.js 4.6.0</desc>
<defs>
</defs>
<g transform="matrix(1 0 0 1 234.01 280.87)" id="01yWESVNM5LR23RW5A6BK"  >
<path style="stroke: none; stroke-width: 1; stroke-dasharray: none; stroke-linecap: butt; stroke-dashoffset: 0; stroke-linejoin: miter; stroke-miterlimit: 4; fill: rgb(255,255,255); fill-opacity: 0; fill-rule: nonzero; opacity: 1;" vector-effect="non-scaling-stroke"  transform=" translate(-700, -490)" d="M 0 980 L 0 0 L 1400 0 L 1400 980 z" stroke-linecap="round" />
</g>
<g transform="matrix(6.01 0 0 7.81 250 250)" id="sADaCfdhXeUDbT_RhOHeV"  >
<g style="" vector-effect="non-scaling-stroke"   >
		<g transform="matrix(1 0 0 1 0 0)" id="kNznba3Hbd85C8xha08bg"  >
<path style="stroke: none; stroke-width: 1; stroke-dasharray: none; stroke-linecap: butt; stroke-dashoffset: 0; stroke-linejoin: miter; stroke-miterlimit: 4; fill: rgb(0,0,0); fill-rule: nonzero; opacity: 1;" vector-effect="non-scaling-stroke"  transform=" translate(-40.03, -40.05)" d="M 80 37.7 C 80 23 62.1 11.1 40 11.1 C 17.9 11.1 0 23 0 37.7 C 0 52.400000000000006 17.9 64.30000000000001 40 64.30000000000001 C 43.4 64.30000000000001 46.7 64.00000000000001 50 63.500000000000014 C 54.7 67.10000000000001 60.5 69.00000000000001 67 69.00000000000001 C 73.7 69.00000000000001 78.7 67.00000000000001 79 67.00000000000001 C 79.8 66.70000000000002 80.2 66.00000000000001 80 65.30000000000001 C 79.7 64.4 78.3 64.20000000000002 77.2 64.20000000000002 C 72.2 63.90000000000002 68.3 60.70000000000002 65.9 58.100000000000016 C 74.9 52.9 80 45.6 80 37.7 z" stroke-linecap="round" />
</g>
		<g transform="matrix(1 0 0 1 -0.03 0)" id="TUI-IWVLIYXrCL6S2V7Fc"  >
<path style="stroke: none; stroke-width: 1; stroke-dasharray: none; stroke-linecap: butt; stroke-dashoffset: 0; stroke-linejoin: miter; stroke-miterlimit: 4; fill: rgb(132,0,255); fill-rule: nonzero; opacity: 1;" vector-effect="non-scaling-stroke"  transform=" translate(-40, -40.05)" d="M 76.2 37.7 C 76.2 45 71.10000000000001 51.800000000000004 62.2 56.300000000000004 C 61.300000000000004 56.7 61.1 57.7 61.6 58.400000000000006 C 63.4 60.60000000000001 66.6 63.900000000000006 71 65.7 C 69.8 65.9 68.4 66 66.9 66 C 61.00000000000001 66 56.00000000000001 64.3 51.900000000000006 60.8 C 51.50000000000001 60.5 50.900000000000006 60.199999999999996 50.10000000000001 60.4 C 46.80000000000001 61 43.400000000000006 61.3 40.00000000000001 61.3 C 20.000000000000007 61.3 3.8000000000000043 50.699999999999996 3.8000000000000043 37.699999999999996 C 3.8000000000000043 24.699999999999996 20.000000000000004 14.099999999999994 40.00000000000001 14.099999999999994 C 60.000000000000014 14.099999999999994 76.2 24.7 76.2 37.7 z" stroke-linecap="round" />
</g>
</g>
</g>
<g transform="matrix(3.67 0 0 3.46 248.52 230.08)" id="2g4kaV0wHRUYxWwbbRLkl"  >
<g style="" vector-effect="non-scaling-stroke"   >
		<g transform="matrix(1 0 0 1 0 0)" id="waQvhivv0EPPSCHCz-Jjf"  >
<path style="stroke: none; stroke-width: 1; stroke-dasharray: none; stroke-linecap: butt; stroke-dashoffset: 0; stroke-linejoin: miter; stroke-miterlimit: 4; fill: rgb(132,0,255); fill-rule: nonzero; opacity: 1;" vector-effect="non-scaling-stroke"  transform=" translate(-40, -40)" d="M 40 0 C 17.9 0 0 17.9 0 40 C 0 62.1 17.9 80 40 80 C 62.1 80 80 62.1 80 40 C 80 17.9 62.1 0 40 0 z" stroke-linecap="round" />
</g>
		<g transform="matrix(1 0 0 1 0 -0.04)" id="6wJucGqZ_PHc0OtnnLxCP"  >
<path style="stroke: none; stroke-width: 1; stroke-dasharray: none; stroke-linecap: butt; stroke-dashoffset: 0; stroke-linejoin: miter; stroke-miterlimit: 4; fill: rgb(255,0,0); fill-rule: nonzero; opacity: 1;" vector-effect="non-scaling-stroke"  transform=" translate(-40, -39.96)" d="M 59.2 28.2 L 47.4 40 L 59.2 51.8 C 61.300000000000004 53.9 61.300000000000004 57.199999999999996 59.2 59.199999999999996 C 58.2 60.199999999999996 56.800000000000004 60.699999999999996 55.5 60.699999999999996 C 54.199999999999996 60.699999999999996 52.8 60.199999999999996 51.8 59.199999999999996 L 40 47.4 L 28.2 59.2 C 27.2 60.2 25.8 60.7 24.5 60.7 C 23.2 60.7 21.8 60.2 20.8 59.2 C 18.7 57.1 18.7 53.800000000000004 20.8 51.800000000000004 L 32.6 40 L 20.8 28.2 C 18.7 26.099999999999998 18.7 22.799999999999997 20.8 20.799999999999997 C 22.900000000000002 18.799999999999997 26.200000000000003 18.699999999999996 28.200000000000003 20.799999999999997 L 40 32.6 L 51.8 20.8 C 53.9 18.7 57.199999999999996 18.7 59.199999999999996 20.8 C 61.199999999999996 22.900000000000002 61.3 26.2 59.2 28.2 z" stroke-linecap="round" />
</g>
</g>
</g>
</svg>
